# xmcd CD database file
# Copyright (C) 2007 Ti Kan
# 
# Track frame offsets:
#     150
#     17210
#     29272
#     46174
#     67933
#     84475
#     105200
#     120479
#     138936
# 
# Disc length: 2148 seconds
# 
# Revision: 1
# Processed by: cddbd v1.5.2PL0 Copyright (c) Steve Scherf et al.
# Submitted via: DiscPlay 4.0.4
# 
DISCID=63086209
DTITLE=Stuart Rosh and The Geniuses - Accept No Limitations
DYEAR=1900
DGENRE=
TTITLE0=Love Comes ashore
TTITLE1=Once Bit
TTITLE2=Accept No Limitations
TTITLE3=Route 666
TTITLE4=Tobacco Road
TTITLE5=Sweet and Loving Bride
TTITLE6=Good Luck
TTITLE7=When the Words Won't Come
TTITLE8=California 99
EXTD=Submitted by ecto@cox.net
EXTT0=
EXTT1=
EXTT2=
EXTT3=
EXTT4=
EXTT5=
EXTT6=
EXTT7=
EXTT8=
PLAYORDER=
